# xmcd
#
# Track frame offsets: 
#        150
#        14369
#        32854
#        48133
#        69492
#        82987
#        104820
#        127102
#        146493
#        163516
#        179861
#        193982
#        212656
#
# Disc length: 3039 seconds
#
# Revision: 10
# Processed by: cddbd v1.5.2PL0 Copyright (c) Steve Scherf et al.
# Submitted via: ExactAudioCopy v0.99pb5
#
DISCID=c20bdd0d
DTITLE=Various Artist - The Sweet Escape
DYEAR=2006
DGENRE=Pop
TTITLE0=Gwen Stefani - Wind It Up
TTITLE1=Gwen Stefani feat. Akon - The Sweet Escape
TTITLE2=Gwen Stefani - Orange County Girl
TTITLE3=Gwen Stefani - Early Winter
TTITLE4=Gwen Stefani - Now That You Got It
TTITLE5=Gwen Stefani - 4 In The Morning
TTITLE6=Gwen Stefani feat. Pharrell - Yummy
TTITLE7=Gwen Stefani - Fluorescent
TTITLE8=Gwen Stefani - Breakin' Up
TTITLE9=Gwen Stefani - Don't Get It Twisted
TTITLE10=Gwen Stefani - U Started It
TTITLE11=Gwen Stefani - Wonderful Life
TTITLE12=Gwen Stefani - Wind It Up (Harajuku Lovers Live Version)
EXTD=YEAR: 2006
EXTT0=
EXTT1=
EXTT2=
EXTT3=
EXTT4=
EXTT5=
EXTT6=
EXTT7=
EXTT8=
EXTT9=
EXTT10=
EXTT11=
EXTT12=
PLAYORDER=
